{
    "asset" : {
        "generator" : "Khronos glTF Blender I/O v3.4.50",
        "version" : "2.0"
    },
    "extensionsUsed" : [
        "KHR_materials_specular",
        "KHR_materials_ior"
    ],
    "scene" : 0,
    "scenes" : [
        {
            "name" : "Scene",
            "nodes" : [
                0,
                1,
                2,
                3,
                4,
                5,
                6,
                7
            ]
        }
    ],
    "nodes" : [
        {
            "name" : "Block:A$C0EB14978",
            "rotation" : [
                0.9238795638084412,
                0,
                -0.3826833963394165,
                7.56650706534856e-08
            ],
            "scale" : [
                -0.0010000000474974513,
                -0.0010000000474974513,
                -0.0010000000474974513
            ],
            "translation" : [
                24.73065185546875,
                0,
                6.66033935546875
            ]
        },
        {
            "mesh" : 0,
            "name" : "4F_\ubc14\ub2e5",
            "rotation" : [
                0.7071067094802856,
                0,
                -0.7071068286895752,
                6.883937686552599e-08
            ],
            "scale" : [
                -0.0010000000474974513,
                -0.0010000000474974513,
                -0.0010000000474974513
            ],
            "translation" : [
                -9.86181640625,
                0,
                -10.83892822265625
            ]
        },
        {
            "mesh" : 1,
            "name" : "Line001",
            "scale" : [
                0.0010000000474974513,
                0.0010000000474974513,
                0.0010000000474974513
            ],
            "translation" : [
                -0.39605712890625,
                3.200000047683716,
                -11.349700927734375
            ]
        },
        {
            "mesh" : 2,
            "name" : "4F_Wall",
            "scale" : [
                0.0010000000474974513,
                0.0010000000474974513,
                0.0010000000474974513
            ],
            "translation" : [
                -9.516845703125,
                0,
                -32.96893310546875
            ]
        },
        {
            "mesh" : 3,
            "name" : "4F_\uc720\ub9ac",
            "rotation" : [
                0.5,
                -0.5,
                0.5000000596046448,
                0.4999999403953552
            ],
            "scale" : [
                0.0010000000474974513,
                0.0010000000474974513,
                0.0010000000474974513
            ],
            "translation" : [
                15.07470703125,
                2.34859037399292,
                -18.65557861328125
            ]
        },
        {
            "mesh" : 4,
            "name" : "4F_\ucc3d\ubb38\ud504\ub808\uc784",
            "rotation" : [
                0.7071067094802856,
                0,
                -0.7071068286895752,
                6.883937686552599e-08
            ],
            "scale" : [
                -0.0010000000474974513,
                -0.0010000000474974513,
                -0.0010000000474974513
            ],
            "translation" : [
                -9.86181640625,
                0,
                -10.83892822265625
            ]
        },
        {
            "mesh" : 5,
            "name" : "\uc5d8\ub9ac\ubca0\uc774\ud130 \ub3c4\uc5b4",
            "scale" : [
                0.0010000000474974513,
                0.0010000000474974513,
                0.0010000000474974513
            ],
            "translation" : [
                -21.98681640625,
                0,
                0.041046142578125
            ]
        },
        {
            "mesh" : 6,
            "name" : "4F_\uc678\ubd80 \uc54c\ub958\ubbf8\ub284\ud310\ub12c",
            "scale" : [
                0.0010000000474974513,
                0.0010000000474974513,
                0.0010000000474974513
            ],
            "translation" : [
                21.2049560546875,
                3.200000047683716,
                -2.816558837890625
            ]
        }
    ],
    "materials" : [
        {
            "doubleSided" : true,
            "extensions" : {
                "KHR_materials_specular" : {
                    "specularColorFactor" : [
                        2.371357614441398,
                        2.371357614441398,
                        2.371357614441398
                    ]
                },
                "KHR_materials_ior" : {
                    "ior" : 1.4500000476837158
                }
            },
            "name" : "\ucf58\ud06c\ub9ac\ud2b82",
            "pbrMetallicRoughness" : {
                "baseColorFactor" : [
                    0.4901960790157318,
                    0.4901960790157318,
                    0.4901960790157318,
                    1
                ],
                "metallicFactor" : 0,
                "roughnessFactor" : 0.5527864098548889
            }
        },
        {
            "doubleSided" : true,
            "extensions" : {
                "KHR_materials_specular" : {
                    "specularColorFactor" : [
                        2.371357614441398,
                        2.371357614441398,
                        2.371357614441398
                    ]
                },
                "KHR_materials_ior" : {
                    "ior" : 1.4500000476837158
                }
            },
            "name" : "\ucf58\ud06c\ub9ac\ud2b8",
            "pbrMetallicRoughness" : {
                "baseColorFactor" : [
                    0.9098039269447327,
                    0.9098039269447327,
                    0.9098039269447327,
                    1
                ],
                "metallicFactor" : 0,
                "roughnessFactor" : 0.5527864098548889
            }
        },
        {
            "alphaMode" : "BLEND",
            "doubleSided" : true,
            "extensions" : {
                "KHR_materials_specular" : {
                    "specularColorFactor" : [
                        2.371357614441398,
                        2.371357614441398,
                        2.371357614441398
                    ]
                },
                "KHR_materials_ior" : {
                    "ior" : 1.4500000476837158
                }
            },
            "name" : "\ucc3d\ubb38\uc720\ub9ac",
            "pbrMetallicRoughness" : {
                "baseColorFactor" : [
                    0.9333333373069763,
                    0.9960784316062927,
                    1,
                    0.10000002384185791
                ],
                "metallicFactor" : 0,
                "roughnessFactor" : 0
            }
        },
        {
            "doubleSided" : true,
            "extensions" : {
                "KHR_materials_specular" : {
                    "specularColorFactor" : [
                        2.371357614441398,
                        2.371357614441398,
                        2.371357614441398
                    ]
                },
                "KHR_materials_ior" : {
                    "ior" : 1.4500000476837158
                }
            },
            "name" : "\ucc38\ubb38 \ud504\ub808\uc784",
            "normalTexture" : {
                "index" : 0
            },
            "pbrMetallicRoughness" : {
                "baseColorFactor" : [
                    0.8627451062202454,
                    0.8627451062202454,
                    0.8627451062202454,
                    1
                ],
                "metallicFactor" : 0,
                "roughnessFactor" : 0.5527864098548889
            }
        },
        {
            "doubleSided" : true,
            "extensions" : {
                "KHR_materials_specular" : {
                    "specularColorFactor" : [
                        2.371357614441398,
                        2.371357614441398,
                        2.371357614441398
                    ]
                },
                "KHR_materials_ior" : {
                    "ior" : 1.4500000476837158
                }
            },
            "name" : "\uc5d8\ub9ac\ubca0\uc774\ud130 \ub3c4\uc5b4",
            "pbrMetallicRoughness" : {
                "baseColorFactor" : [
                    0.7254902124404907,
                    0.7254902124404907,
                    0.7254902124404907,
                    1
                ],
                "metallicFactor" : 0,
                "roughnessFactor" : 0.5527864098548889
            }
        },
        {
            "doubleSided" : true,
            "extensions" : {
                "KHR_materials_specular" : {
                    "specularColorFactor" : [
                        1.6599503018401929,
                        1.6599503018401929,
                        1.6599503018401929
                    ]
                },
                "KHR_materials_ior" : {
                    "ior" : 1.4500000476837158
                }
            },
            "name" : "\uc54c\ub8e8\ubbf8\ub284",
            "pbrMetallicRoughness" : {
                "baseColorFactor" : [
                    0.8196078538894653,
                    0.8196078538894653,
                    0.8196078538894653,
                    1
                ],
                "metallicFactor" : 0,
                "roughnessFactor" : 0.5
            }
        }
    ],
    "meshes" : [
        {
            "name" : "\uba54\uc26c",
            "primitives" : [
                {
                    "attributes" : {
                        "POSITION" : 0,
                        "TEXCOORD_0" : 1,
                        "NORMAL" : 2
                    },
                    "indices" : 3,
                    "material" : 0
                }
            ]
        },
        {
            "name" : "\uba54\uc26c.001",
            "primitives" : [
                {
                    "attributes" : {
                        "POSITION" : 4,
                        "TEXCOORD_0" : 5,
                        "NORMAL" : 6
                    },
                    "indices" : 7,
                    "material" : 1
                }
            ]
        },
        {
            "name" : "\uba54\uc26c.002",
            "primitives" : [
                {
                    "attributes" : {
                        "POSITION" : 8,
                        "TEXCOORD_0" : 9,
                        "NORMAL" : 10
                    },
                    "indices" : 11,
                    "material" : 1
                }
            ]
        },
        {
            "name" : "\uba54\uc26c.003",
            "primitives" : [
                {
                    "attributes" : {
                        "POSITION" : 12,
                        "TEXCOORD_0" : 13,
                        "NORMAL" : 14
                    },
                    "indices" : 15,
                    "material" : 2
                }
            ]
        },
        {
            "name" : "\uba54\uc26c.004",
            "primitives" : [
                {
                    "attributes" : {
                        "POSITION" : 16,
                        "TEXCOORD_0" : 17,
                        "NORMAL" : 18
                    },
                    "indices" : 19,
                    "material" : 3
                }
            ]
        },
        {
            "name" : "\uba54\uc26c.005",
            "primitives" : [
                {
                    "attributes" : {
                        "POSITION" : 20,
                        "TEXCOORD_0" : 21,
                        "NORMAL" : 22
                    },
                    "indices" : 23,
                    "material" : 4
                }
            ]
        },
        {
            "name" : "\uba54\uc26c.006",
            "primitives" : [
                {
                    "attributes" : {
                        "POSITION" : 24,
                        "TEXCOORD_0" : 25,
                        "NORMAL" : 26
                    },
                    "indices" : 27,
                    "material" : 5
                }
            ]
        }
    ],
    "textures" : [
        {
            "sampler" : 0,
            "source" : 0
        }
    ],
    "images" : [
        {
            "bufferView" : 20,
            "mimeType" : "image/jpeg",
            "name" : "Concrete1"
        }
    ],
    "accessors" : [
        {
            "bufferView" : 0,
            "componentType" : 5126,
            "count" : 2508,
            "max" : [
                31872.00390625,
                59.99650955200195,
                33695
            ],
            "min" : [
                -33035.90625,
                -500.00634765625,
                -33705.1875
            ],
            "type" : "VEC3"
        },
        {
            "bufferView" : 1,
            "componentType" : 5126,
            "count" : 2508,
            "type" : "VEC2"
        },
        {
            "bufferView" : 2,
            "componentType" : 5126,
            "count" : 2508,
            "type" : "VEC3"
        },
        {
            "bufferView" : 3,
            "componentType" : 5123,
            "count" : 4188,
            "type" : "SCALAR"
        },
        {
            "bufferView" : 4,
            "componentType" : 5126,
            "count" : 60,
            "max" : [
                24229.25,
                200,
                32382.75
            ],
            "min" : [
                -43020.75,
                0,
                -32525.15625
            ],
            "type" : "VEC3"
        },
        {
            "bufferView" : 5,
            "componentType" : 5126,
            "count" : 60,
            "type" : "VEC2"
        },
        {
            "bufferView" : 6,
            "componentType" : 5126,
            "count" : 60,
            "type" : "VEC3"
        },
        {
            "bufferView" : 7,
            "componentType" : 5123,
            "count" : 108,
            "type" : "SCALAR"
        },
        {
            "bufferView" : 8,
            "componentType" : 5126,
            "count" : 4296,
            "max" : [
                33440,
                3200.000732421875,
                54100
            ],
            "min" : [
                -34050,
                -499.9995422363281,
                -9600
            ],
            "type" : "VEC3"
        },
        {
            "bufferView" : 9,
            "componentType" : 5126,
            "count" : 4296,
            "type" : "VEC2"
        },
        {
            "bufferView" : 10,
            "componentType" : 5126,
            "count" : 4296,
            "type" : "VEC3"
        },
        {
            "bufferView" : 11,
            "componentType" : 5123,
            "count" : 6588,
            "type" : "SCALAR"
        },
        {
            "bufferView" : 12,
            "componentType" : 5126,
            "count" : 29088,
            "max" : [
                39870.09375,
                58615,
                2348.59033203125
            ],
            "min" : [
                -25277.8125,
                -8873.25,
                -300.6026611328125
            ],
            "type" : "VEC3"
        },
        {
            "bufferView" : 13,
            "componentType" : 5126,
            "count" : 29088,
            "type" : "VEC2"
        },
        {
            "bufferView" : 14,
            "componentType" : 5126,
            "count" : 29088,
            "type" : "VEC3"
        },
        {
            "bufferView" : 15,
            "componentType" : 5123,
            "count" : 43632,
            "type" : "SCALAR"
        },
        {
            "bufferView" : 16,
            "componentType" : 5126,
            "count" : 24960,
            "max" : [
                32068.98046875,
                2700.006103515625,
                33837.97265625
            ],
            "min" : [
                -33179.05078125,
                -199.99891662597656,
                -33700.5625
            ],
            "type" : "VEC3"
        },
        {
            "bufferView" : 17,
            "componentType" : 5126,
            "count" : 24960,
            "type" : "VEC2"
        },
        {
            "bufferView" : 18,
            "componentType" : 5126,
            "count" : 24960,
            "type" : "VEC3"
        },
        {
            "bufferView" : 19,
            "componentType" : 5123,
            "count" : 37440,
            "type" : "SCALAR"
        },
        {
            "bufferView" : 21,
            "componentType" : 5126,
            "count" : 288,
            "max" : [
                27000.9375,
                2100,
                4980.84375
            ],
            "min" : [
                -985,
                -1.6510852685058808e-09,
                -90.0000228881836
            ],
            "type" : "VEC3"
        },
        {
            "bufferView" : 22,
            "componentType" : 5126,
            "count" : 288,
            "type" : "VEC2"
        },
        {
            "bufferView" : 23,
            "componentType" : 5126,
            "count" : 288,
            "type" : "VEC3"
        },
        {
            "bufferView" : 24,
            "componentType" : 5123,
            "count" : 432,
            "type" : "SCALAR"
        },
        {
            "bufferView" : 25,
            "componentType" : 5126,
            "count" : 2160,
            "max" : [
                3228.4375,
                0.002197265625,
                24449.65625
            ],
            "min" : [
                -65021.78125,
                -3700,
                -41227.34375
            ],
            "type" : "VEC3"
        },
        {
            "bufferView" : 26,
            "componentType" : 5126,
            "count" : 2160,
            "type" : "VEC2"
        },
        {
            "bufferView" : 27,
            "componentType" : 5126,
            "count" : 2160,
            "type" : "VEC3"
        },
        {
            "bufferView" : 28,
            "componentType" : 5123,
            "count" : 3552,
            "type" : "SCALAR"
        }
    ],
    "bufferViews" : [
        {
            "buffer" : 0,
            "byteLength" : 30096,
            "byteOffset" : 0,
            "target" : 34962
        },
        {
            "buffer" : 0,
            "byteLength" : 20064,
            "byteOffset" : 30096,
            "target" : 34962
        },
        {
            "buffer" : 0,
            "byteLength" : 30096,
            "byteOffset" : 50160,
            "target" : 34962
        },
        {
            "buffer" : 0,
            "byteLength" : 8376,
            "byteOffset" : 80256,
            "target" : 34963
        },
        {
            "buffer" : 0,
            "byteLength" : 720,
            "byteOffset" : 88632,
            "target" : 34962
        },
        {
            "buffer" : 0,
            "byteLength" : 480,
            "byteOffset" : 89352,
            "target" : 34962
        },
        {
            "buffer" : 0,
            "byteLength" : 720,
            "byteOffset" : 89832,
            "target" : 34962
        },
        {
            "buffer" : 0,
            "byteLength" : 216,
            "byteOffset" : 90552,
            "target" : 34963
        },
        {
            "buffer" : 0,
            "byteLength" : 51552,
            "byteOffset" : 90768,
            "target" : 34962
        },
        {
            "buffer" : 0,
            "byteLength" : 34368,
            "byteOffset" : 142320,
            "target" : 34962
        },
        {
            "buffer" : 0,
            "byteLength" : 51552,
            "byteOffset" : 176688,
            "target" : 34962
        },
        {
            "buffer" : 0,
            "byteLength" : 13176,
            "byteOffset" : 228240,
            "target" : 34963
        },
        {
            "buffer" : 0,
            "byteLength" : 349056,
            "byteOffset" : 241416,
            "target" : 34962
        },
        {
            "buffer" : 0,
            "byteLength" : 232704,
            "byteOffset" : 590472,
            "target" : 34962
        },
        {
            "buffer" : 0,
            "byteLength" : 349056,
            "byteOffset" : 823176,
            "target" : 34962
        },
        {
            "buffer" : 0,
            "byteLength" : 87264,
            "byteOffset" : 1172232,
            "target" : 34963
        },
        {
            "buffer" : 0,
            "byteLength" : 299520,
            "byteOffset" : 1259496,
            "target" : 34962
        },
        {
            "buffer" : 0,
            "byteLength" : 199680,
            "byteOffset" : 1559016,
            "target" : 34962
        },
        {
            "buffer" : 0,
            "byteLength" : 299520,
            "byteOffset" : 1758696,
            "target" : 34962
        },
        {
            "buffer" : 0,
            "byteLength" : 74880,
            "byteOffset" : 2058216,
            "target" : 34963
        },
        {
            "buffer" : 0,
            "byteLength" : 234322,
            "byteOffset" : 2133096
        },
        {
            "buffer" : 0,
            "byteLength" : 3456,
            "byteOffset" : 2367420,
            "target" : 34962
        },
        {
            "buffer" : 0,
            "byteLength" : 2304,
            "byteOffset" : 2370876,
            "target" : 34962
        },
        {
            "buffer" : 0,
            "byteLength" : 3456,
            "byteOffset" : 2373180,
            "target" : 34962
        },
        {
            "buffer" : 0,
            "byteLength" : 864,
            "byteOffset" : 2376636,
            "target" : 34963
        },
        {
            "buffer" : 0,
            "byteLength" : 25920,
            "byteOffset" : 2377500,
            "target" : 34962
        },
        {
            "buffer" : 0,
            "byteLength" : 17280,
            "byteOffset" : 2403420,
            "target" : 34962
        },
        {
            "buffer" : 0,
            "byteLength" : 25920,
            "byteOffset" : 2420700,
            "target" : 34962
        },
        {
            "buffer" : 0,
            "byteLength" : 7104,
            "byteOffset" : 2446620,
            "target" : 34963
        }
    ],
    "samplers" : [
        {
            "magFilter" : 9729,
            "minFilter" : 9987
        }
    ],
    "buffers" : [
        {
            "byteLength" : 2453724,
            "uri" : "data:application/octet-stream;base64,"
        }
    ]
}
